<svg width="100%" height="100%" viewBox="0 0 5000 5000" version="1.1" xmlns="http://www.w3.org/2000/svg" xmlns:xlink="http://www.w3.org/1999/xlink" xml:space="preserve" xmlns:serif="http://www.serif.com/" style="fill-rule:evenodd;clip-rule:evenodd;stroke-linecap:round;stroke-linejoin:round;stroke-miterlimit:1.5;">
    <g transform="matrix(8.41082,0,0,8.41082,300.478,297.157)">
        <path d="M224.1,379.9C218.8,383.1 213.8,385.5 209.1,387.1C204.5,388.6 200.2,389.4 196.2,389.4C190.9,389.4 187.3,387.7 185.3,384.4C183.4,381.1 182.7,374.8 183.3,365.7C183.7,359.7 185.4,341.5 188.5,311C191.7,280.5 194.1,253 195.7,228.6C196.1,222.4 196.8,209.2 197.8,189.2C198.3,179.5 198.8,171.8 199.1,166.1L185,167.1C166.8,168.4 152,170.1 140.8,172.4C131.807,174.247 124.425,176.481 118.708,179.153C116.418,180.229 113.687,179.323 112.496,177.091C110.816,173.971 109.485,171.162 108.5,168.7C107.1,165.2 106.4,162.1 106.4,159.3C106.4,154.2 108.4,150.4 112.3,148C116.2,145.6 123.1,144 132.8,143.3C137.9,142.9 152.3,142.3 176.2,141.5C200,140.7 221.4,139.6 240.3,138.2C263.1,136.5 281.4,134.2 295.2,131.5C306.626,129.265 315.995,126.412 323.194,123.056C324.372,122.502 325.726,122.456 326.94,122.928C328.153,123.401 329.12,124.35 329.613,125.556C330.415,127.512 331.004,129.388 331.4,131.2C332.1,134.3 332.3,137.3 331.8,140.1C330.8,146.7 327.6,151.7 322.1,155.2C316.7,158.7 308.8,160.7 298.4,161.5C294.6,161.8 285.3,162.1 270.7,162.4C256,162.8 244.3,163.1 235.5,163.5C232.8,184.4 230.4,204 228.3,222.4C226.3,240.8 224.6,257.7 223.2,273.1C220.6,302.7 219.4,325.9 219.6,342.7C219.8,359.5 221.3,371.9 224.1,379.9Z" style="fill:white;fill-rule:nonzero;"/>
    </g>
    <g transform="matrix(2556.1,0,0,2606.14,2291.92,3678.23)">
        <path d="M0.217,-0.638C0.215,-0.591 0.214,-0.541 0.214,-0.488L0.214,-0.209C0.214,-0.111 0.217,-0.057 0.223,-0.045C0.229,-0.033 0.248,-0.027 0.28,-0.027L0.298,-0.027C0.307,-0.027 0.314,-0.02 0.314,-0.012C0.314,-0.008 0.312,-0.004 0.309,-0.001C0.306,0.001 0.302,0.003 0.298,0.003C0.248,0.001 0.208,0 0.178,0C0.151,0 0.104,0.001 0.038,0.003C0.034,0.003 0.03,0.002 0.027,-0.001C0.024,-0.004 0.022,-0.008 0.022,-0.012C0.022,-0.016 0.024,-0.02 0.027,-0.023C0.03,-0.026 0.034,-0.027 0.038,-0.027L0.066,-0.027C0.086,-0.027 0.1,-0.03 0.105,-0.035C0.111,-0.04 0.115,-0.05 0.117,-0.066C0.118,-0.081 0.12,-0.128 0.122,-0.208L0.122,-0.468L0.121,-0.569C0.12,-0.611 0.115,-0.637 0.107,-0.646C0.099,-0.656 0.079,-0.661 0.046,-0.661L0.031,-0.661C0.028,-0.661 0.026,-0.662 0.025,-0.663C0.023,-0.665 0.022,-0.667 0.022,-0.669C0.022,-0.675 0.024,-0.681 0.029,-0.685C0.033,-0.689 0.039,-0.691 0.045,-0.691C0.081,-0.69 0.125,-0.689 0.177,-0.689C0.214,-0.689 0.254,-0.69 0.299,-0.692C0.329,-0.693 0.351,-0.694 0.367,-0.694C0.445,-0.694 0.503,-0.68 0.539,-0.651C0.574,-0.622 0.592,-0.583 0.592,-0.535C0.592,-0.499 0.582,-0.465 0.561,-0.432C0.541,-0.4 0.511,-0.373 0.474,-0.354C0.436,-0.334 0.396,-0.324 0.354,-0.324C0.334,-0.324 0.31,-0.327 0.28,-0.333C0.278,-0.341 0.28,-0.349 0.286,-0.355C0.291,-0.361 0.299,-0.363 0.307,-0.362C0.32,-0.36 0.332,-0.359 0.342,-0.359C0.387,-0.359 0.423,-0.372 0.449,-0.4C0.476,-0.427 0.489,-0.464 0.489,-0.511C0.489,-0.557 0.475,-0.592 0.447,-0.618C0.418,-0.643 0.376,-0.656 0.321,-0.656C0.289,-0.656 0.255,-0.65 0.217,-0.638Z" style="fill:white;fill-rule:nonzero;"/>
    </g>
    <g transform="matrix(1.03794,0,0,1.03794,-96.7916,-286.337)">
        <path d="M748.002,1643.25L2551.5,602" style="fill:none;stroke:white;stroke-width:160.58px;"/>
    </g>
    <g transform="matrix(1.03794,0,0,1.03794,-96.7916,-286.337)">
        <path d="M2551.5,602L4355,1643.25L4355,3725.75" style="fill:none;stroke:white;stroke-width:72.26px;"/>
    </g>
    <g transform="matrix(1.03794,0,0,1.03794,-96.7916,-286.337)">
        <path d="M4355,3725.75L2551.5,4767" style="fill:none;stroke:white;stroke-width:160.58px;"/>
    </g>
    <g transform="matrix(1.03794,0,0,1.03794,-96.7916,-286.337)">
        <path d="M2551.5,4767L748.002,3725.75L748.002,1643.25" style="fill:none;stroke:white;stroke-width:72.26px;"/>
    </g>
    <path d="M679.586,1419.25C679.586,1419.25 484.957,5093.27 2551.5,4661.5" style="fill:none;stroke:white;stroke-width:75px;"/>
    <g transform="matrix(-1,0,0,-1,5103,5000)">
        <path d="M679.586,1419.25C679.586,1419.25 484.957,5093.27 2551.5,4661.5" style="fill:none;stroke:white;stroke-width:75px;"/>
    </g>
</svg>
